<?xml version="1.0" encoding="UTF-8" standalone="no"?>
<svg
   xmlns:dc="http://purl.org/dc/elements/1.1/"
   xmlns:cc="http://creativecommons.org/ns#"
   xmlns:rdf="http://www.w3.org/1999/02/22-rdf-syntax-ns#"
   xmlns:svg="http://www.w3.org/2000/svg"
   xmlns="http://www.w3.org/2000/svg"
   xmlns:sodipodi="http://sodipodi.sourceforge.net/DTD/sodipodi-0.dtd"
   xmlns:inkscape="http://www.inkscape.org/namespaces/inkscape"
   viewBox="0 0 474.22 85.56"
   id="svg2"
   version="1.1"
   inkscape:version="0.48.4 r9939"
   width="100%"
   height="100%"
   sodipodi:docname="elementary.svg">
  <metadata
     id="metadata10">
    <rdf:RDF>
      <cc:Work
         rdf:about="">
        <dc:format>image/svg+xml</dc:format>
        <dc:type
           rdf:resource="http://purl.org/dc/dcmitype/StillImage" />
      </cc:Work>
    </rdf:RDF>
  </metadata>
  <defs
     id="defs8" />
  <sodipodi:namedview
     pagecolor="#ffffff"
     bordercolor="#666666"
     borderopacity="1"
     objecttolerance="10"
     gridtolerance="10"
     guidetolerance="10"
     inkscape:pageopacity="0"
     inkscape:pageshadow="2"
     inkscape:window-width="1628"
     inkscape:window-height="1012"
     id="namedview6"
     showgrid="false"
     fit-margin-top="0"
     fit-margin-left="0"
     fit-margin-right="0"
     fit-margin-bottom="0"
     inkscape:zoom="1.8182835"
     inkscape:cx="192.19612"
     inkscape:cy="33.792173"
     inkscape:window-x="75"
     inkscape:window-y="34"
     inkscape:window-maximized="0"
     inkscape:current-layer="svg2" />
  <path
     class="logotype-svg"
     style="text-align:start;fill:#333333"
     d="m 398.221,9.9980017 c -3.287,0 -6.357,0.7170003 -9.22,2.1250003 -2.817,1.36 -5.294,3.215 -7.406,5.562 -2.066,2.347999 -3.686,5.042999 -4.906,8.093999 -1.174,3.054 -1.782,6.23 -1.782,9.565 0,3.192 0.592,6.323 1.72,9.375 1.126,3.05 2.715,5.745 4.78,8.092 2.066,2.348 4.496,4.233 7.313,5.688 2.86,1.455 6.024,2.187 9.5,2.187 3.284,0 6.337,-0.67 9.154,-2.03 2.817,-1.41 5.278,-3.263 7.344,-5.563 2.11,-2.347 3.73,-5.043 4.905,-8.094 1.22,-3.05 1.844,-6.276 1.844,-9.656 0,-3.098 -0.562,-6.152 -1.69,-9.157 -1.125,-3.05 -2.715,-5.762 -4.78,-8.155999 -2.02,-2.392 -4.48,-4.324 -7.344,-5.78 -2.859,-1.502 -6.006,-2.2520003 -9.432,-2.2520003 z m 48.124,0 c -2.676,0 -5.09,0.2960003 -7.25,0.9060003 -2.113,0.564 -3.95,1.452 -5.5,2.625 -1.502,1.13 -2.687,2.53 -3.53,4.22 -0.8,1.644 -1.19,3.529999 -1.19,5.687999 0,2.066 0.375,3.81 1.126,5.22 0.75,1.36 1.857,2.53 3.313,3.468 1.502,0.892 3.293,1.64 5.406,2.25 2.157,0.563 4.634,1.077 7.404,1.594 2.863,0.562 5.356,1.185 7.47,1.842 2.11,0.658 3.856,1.468 5.217,2.407 1.363,0.937 2.344,2.06 3,3.373 0.66,1.267 1,2.84 1,4.718 0,3.757 -1.463,6.56 -4.374,8.44 -2.863,1.83 -6.774,2.75 -11.75,2.75 -3.802,0 -7.214,-0.577 -10.218,-1.75 -2.96,-1.175 -5.685,-3.09 -8.22,-5.72 l -1.063,0.906 c 2.676,2.676 5.56,4.67 8.657,5.938 3.145,1.22 6.744,1.812 10.78,1.812 5.493,0 9.778,-1.06 12.876,-3.218 3.145,-2.16 4.72,-5.292 4.72,-9.376 0,-2.207 -0.438,-4.045 -1.283,-5.5 -0.845,-1.455 -2.06,-2.67 -3.656,-3.657 -1.55,-0.985 -3.434,-1.81 -5.687,-2.468 -2.254,-0.658 -4.762,-1.25 -7.53,-1.814 -2.77,-0.563 -5.17,-1.124 -7.19,-1.687 -1.97,-0.61 -3.607,-1.328 -4.874,-2.126 -1.268,-0.845 -2.203,-1.858 -2.814,-3.032 -0.61,-1.22 -0.906,-2.716 -0.906,-4.5 0,-1.83 0.297,-3.481999 0.908,-4.936999 0.61,-1.454 1.59,-2.685 2.906,-3.72 1.314,-1.077 2.98,-1.903 5,-2.467 2.065,-0.563 4.51,-0.843 7.375,-0.843 2.955,0 5.51,0.39 7.623,1.187 2.16,0.8 4.216,2.28 6.187,4.44 l 0.908,-0.97 c -1.972,-2.16 -4.138,-3.702 -6.532,-4.594 -2.343,-0.939 -5.117,-1.4050003 -8.309,-1.4050003 z M 52.406999,10.592002 v 43.875999 c 0,3.097 2.042,5.75 5.563,5.75 h 3.185 l -0.03,-1.345 c -0.07,0 -1.162,0.03 -3.063,0.03 -2.747,0 -4.22,-2.394 -4.22,-4.436 V 10.590002 h -1.437 z m 194.844001,0 v 43.999999 c 0,3.38 2.933,5.625 6.313,5.625 3.872,0 4.335,0.07 4.406,0 v -1.41 h -4.408 c -2.465,0 -4.696,-1.472 -4.907,-4.218 v -29.841 h 10.188 v -1.406 H 248.655 V 10.592002 h -1.406 z m 150.97,0.812 c 3.097,0 5.964,0.655 8.592,1.97 2.676,1.313 4.998,3.09 6.97,5.343 1.97,2.203999 3.513,4.774999 4.593,7.684999 1.127,2.864 1.687,5.84 1.688,8.938 0,2.957 -0.546,5.886 -1.625,8.75 -1.033,2.863 -2.513,5.403 -4.438,7.656 -1.878,2.252 -4.184,4.09 -6.906,5.5 -2.676,1.36 -5.636,2.03 -8.875,2.03 -3.194,0 -6.108,-0.654 -8.784,-1.97 -2.675,-1.313 -4.98,-3.073 -6.906,-5.28 -1.923,-2.253 -3.466,-4.792 -4.592,-7.656 -1.08,-2.91 -1.626,-5.933 -1.625,-9.03 0,-2.96 0.53,-5.856 1.562,-8.72 1.08,-2.863 2.575,-5.434 4.5,-7.687999 1.925,-2.253 4.23,-4.044 6.906,-5.406 2.725,-1.407 5.7,-2.124 8.94,-2.124 z m -74.314,1.28 c -0.803,0.05 -1.614,0.26 -2.312,0.658 -1.063,0.606 -1.897,1.64 -2.25,2.812 -0.242,0.802 -0.233,1.666 -0.156,2.5 0.085,0.928 0.264,1.825999 0.53,2.719999 0.198,0.66 0.457,1.3 0.72,1.936 -1.03,0.005 -2.065,0.028 -3.094,0.032 -0.25,0.004 -2.197,0.022 -3.188,0.312 -5.243,1.537 -8.483,4.27 -10.97,9.125 l 0.002,-9.435 h -1.407 v 36.53 h 1.41 v -23.094 c 0.914,-3.343 2.604,-6.266 5,-8.405 2.393,-2.14 5.485,-3.484 9.217,-3.625 1.15,-0.046 2.384,-0.047 3.563,-0.063 l 16.374,35.187 c -5.563,12.674 -5.773,13.11 -6.125,13.53 -0.495,0.494 -1.06,0.75 -3.315,0.75 l -1.25,-0.03 v 1.406 l 1.25,0.032 c 2.606,0 4.015,-0.552 4.72,-1.75 l 0.5,-0.843 21.75,-49.626 h -1.563 l -15.282,34.78 -15.405,-33.468 c 0.745,-0.01 1.51,0.037 2.25,-0.062 0.8,-0.107 1.56,-0.427 2.25,-0.844 0.724,-0.437 1.372,-0.976 1.875,-1.656 0.7,-0.946 1.062,-2.136999 1.094,-3.312999 0.027,-0.997 -0.17,-1.986 -0.625,-2.874 -0.36,-0.696 -0.87,-1.31 -1.47,-1.813 -0.754,-0.63 -1.664,-1.082 -2.626,-1.282 -0.468,-0.097 -0.96,-0.148 -1.438,-0.125 h -0.03 z m 0.438,1.158 c 0.78,0.008 1.552,0.298 2.187,0.75 0.638,0.45 1.148,1.087 1.5,1.78 0.44,0.862 0.646,1.85 0.565,2.813 -0.082,0.963999 -0.43,1.894999 -1.063,2.624999 -0.887,1.025 -2.304,1.607 -3.655,1.5 h -1.813 l -0.595,-1.312 c -0.353,-0.837 -0.612,-1.733 -0.783,-2.624999 -0.175,-0.918 -0.31,-1.88 -0.062,-2.78 0.248,-0.904 0.888,-1.64 1.688,-2.126 0.613,-0.375 1.313,-0.635 2.03,-0.627 z m -101.656,8.905999 c -10.28,0 -14.188,9.388 -14.188,16.78 v 20.345 h 1.406 v -20.345 c 0,-7.674 4.19,-15.374 12.78,-15.374 8.592,0 12.75,7.7 12.75,15.375 v 20.346 h 1.408 v -20.347 c 0,-7.392 -3.876,-16.78 -14.156,-16.78 z m -195.720001,0.03 c -10.208,0 -16.685,9.15 -16.968,18.94 0,9.364 7.384,18.874 17.594,18.874 5.492,0 12.278,-3.047 14.53,-8.75 h -1.53 c -2.183,4.788 -7.65,7.343 -13,7.343 -8.943,0 -15.554,-7.91 -16.188,-16.78 h 33.438 v -0.75 c -0.14,-10 -7.172,-18.876 -17.875,-18.876 z m 55.25,0 c -10.21,0 -16.686,9.15 -16.968,18.94 0,9.364 7.415,18.874 17.625,18.874 5.492,0 12.247,-3.047 14.5,-8.75 h -1.5 c -2.183,4.788 -7.65,7.343 -13,7.343 -8.942,0 -15.585,-7.91 -16.22,-16.78 H 100.126 v -0.75 c -0.140001,-10 -7.203001,-18.876 -17.906001,-18.876 z m 37.813001,0 c -5.983,0 -10.692,4.583 -12.123,10.19 -0.7,2.738 -0.937,3.63 -0.937,26.905 h 1.405 c 0,-20.486 0.054,-22.017 0.438,-24.813 0.897,-5.91 5.075,-10.935 11.218,-10.875 6.56,0 12.87,4.226 12.5,15.47 0,2.993 0.096,8.145 0.096,11.968 0,4.284 -0.094,8.25 -0.094,8.25 h 1.407 c 0,0 0.15,-13.597 0,-20.22 -0.245,-10.665 5.52,-15.455 11.906,-15.468 6.653,0.1 11.758,5.12 12.156,12.094 0.202,3.537 0.094,17.597 0.094,23.596 h 1.406 c 0,-23.335 -0.228,-24.368 -0.72,-26.844 -1.046,-5.278 -6.27,-10.25 -12.936,-10.25 -6.934,0 -11.96,5.04 -12.438,10.626 -0.563,-5.633 -6.545,-10.625 -13.375,-10.625 z m 63.658,0 c -10.21,0 -16.687,9.15 -16.968,18.94 0,9.364 7.414,18.874 17.624,18.874 5.492,0 12.247,-3.047 14.5,-8.75 h -1.5 c -2.183,4.788 -7.65,7.343 -13,7.343 -8.943,0 -15.585,-7.91 -16.22,-16.78 h 33.47 v -0.75 c -0.14,-10 -7.204,-18.876 -17.906,-18.876 z m 95.188,0 c -4.506,0 -8.854,2.177 -12.656,4.782 l 0.842,1.125 c 4.084,-2.886 8.292,-4.5 11.813,-4.5 7.253,0 11.97,5.193 11.97,12.657 v 4.156 c -1.902,-0.704 -6.266,-2.03 -12.25,-2.03 -6.338,0 -15.064,2.52 -15.064,10.405 0,6.267 5.227,11.22 11.846,11.22 5.703,0 11.737,-2.12 15.47,-6.908 v 3.375 c 0,1.48 0.91,2.743 2.53,2.813 h 1.406 v -1.405 h -1.405 c -0.775,0 -0.984,-0.563 -1.125,-1.408 v -20.218 c 0,-7.887 -4.573,-14.063 -13.375,-14.063 z m -251.907001,1.408 c 9.364,0 15.77,7.307 16.405,16.813 h -31.97 c 0.425,-8.026 5.917,-16.811 15.565,-16.811 z m 55.25,0 c 9.364,0 15.77,7.307 16.405,16.813 h -31.97 c 0.424,-8.026 5.917,-16.812 15.564,-16.812 z m 101.468001,0 c 9.364,0 15.772,7.307 16.406,16.813 h -31.97 c 0.423,-8.026 5.917,-16.812 15.564,-16.812 z m 94.906,16.188 c 4.084,0 8.236,0.638 12.25,2.187 v 7.25 c 0,0.845 -0.327,1.82 -1.03,2.875 -2.888,4.507 -9.088,6.5 -14.44,6.5 -5.42,0 -10.437,-3.897 -10.437,-9.812 0,-6.83 7.672,-9 13.657,-9 z"
     id="path4"
     inkscape:connector-curvature="0" />
</svg>
